<svg xmlns="http://www.w3.org/2000/svg" viewBox="0 0 1240 1300" font-family="Segoe UI,Tahoma,Helvetica,Arial,sans-serif">
<defs><marker id="ar" markerWidth="10" markerHeight="10" refX="8" refY="3.2" orient="auto"><path d="M0,0 L8,3.2 L0,6.4 Z" fill="#64748B"/></marker></defs>
<rect x="0" y="0" width="1240" height="1300" fill="#ffffff"/>
<text x="40" y="26" font-size="20" font-weight="bold" fill="#0f172a">IT System - Repair Ticket Workflow</text>
<path d="M560.0,104 L560.0,150" fill="none" stroke="#64748B" stroke-width="1.6" marker-end="url(#ar)"/>
<path d="M560.0,210 L560.0,275" fill="none" stroke="#64748B" stroke-width="1.6" marker-end="url(#ar)"/>
<path d="M700,180.0 L880,180.0" fill="none" stroke="#64748B" stroke-width="1.6" stroke-dasharray="6,4" marker-end="url(#ar)"/>
<rect x="728.8" y="161" width="142.4" height="15" rx="3" fill="#ffffff" opacity="0.92"/>
<text x="800" y="172" font-size="11" fill="#334155" text-anchor="middle">ตรวจประกัน · warranty</text>
<path d="M450,335.0 L320,333.0" fill="none" stroke="#64748B" stroke-width="1.6" marker-end="url(#ar)"/>
<rect x="339.4" y="311" width="91.2" height="15" rx="3" fill="#ffffff" opacity="0.92"/>
<text x="385" y="322" font-size="11" fill="#334155" text-anchor="middle">ยังไม่มี / no</text>
<path d="M560.0,395 L560.0,455" fill="none" stroke="#64748B" stroke-width="1.6" marker-end="url(#ar)"/>
<rect x="559.6" y="414" width="84.80000000000001" height="15" rx="3" fill="#ffffff" opacity="0.92"/>
<text x="602" y="425" font-size="11" fill="#334155" text-anchor="middle">มีแล้ว / yes</text>
<path d="M195.0,366 L195,491 L420,491.0" fill="none" stroke="#64748B" stroke-width="1.6" marker-end="url(#ar)"/>
<path d="M560.0,527 L560.0,590" fill="none" stroke="#64748B" stroke-width="1.6" marker-end="url(#ar)"/>
<path d="M700,491.0 L880,491.0" fill="none" stroke="#64748B" stroke-width="1.6" stroke-dasharray="6,4" marker-end="url(#ar)"/>
<rect x="765.6" y="472" width="52.800000000000004" height="15" rx="3" fill="#ffffff" opacity="0.92"/>
<text x="792" y="483" font-size="11" fill="#334155" text-anchor="middle">after()</text>
<path d="M560.0,652 L560.0,700" fill="none" stroke="#64748B" stroke-width="1.6" marker-end="url(#ar)"/>
<path d="M420,621.0 L320,624.0" fill="none" stroke="#64748B" stroke-width="1.6" marker-end="url(#ar)"/>
<rect x="320.0" y="601" width="104.0" height="15" rx="3" fill="#ffffff" opacity="0.92"/>
<text x="372" y="612" font-size="11" fill="#334155" text-anchor="middle">ยกเลิก · cancel</text>
<path d="M665,760.0 L880,762.0" fill="none" stroke="#64748B" stroke-width="1.6" marker-end="url(#ar)"/>
<rect x="742.2" y="741" width="65.6" height="15" rx="3" fill="#ffffff" opacity="0.92"/>
<text x="775" y="752" font-size="11" fill="#334155" text-anchor="middle">ใช่ / yes</text>
<path d="M560.0,820 L560.0,875" fill="none" stroke="#64748B" stroke-width="1.6" marker-end="url(#ar)"/>
<rect x="570.4" y="836" width="59.2" height="15" rx="3" fill="#ffffff" opacity="0.92"/>
<text x="600" y="847" font-size="11" fill="#334155" text-anchor="middle">ไม่ / no</text>
<path d="M1015.0,730 L1015,621 L700,621.0" fill="none" stroke="#64748B" stroke-width="1.6" marker-end="url(#ar)"/>
<rect x="827.4" y="594" width="155.20000000000002" height="15" rx="3" fill="#ffffff" opacity="0.92"/>
<text x="905" y="605" font-size="11" fill="#334155" text-anchor="middle">อะไหล่มาแล้ว · parts in</text>
<path d="M560.0,947 L560.0,1000" fill="none" stroke="#64748B" stroke-width="1.6" marker-end="url(#ar)"/>
<path d="M455,1060.0 L380,1060 L380,621 L420,621.0" fill="none" stroke="#64748B" stroke-width="1.6" marker-end="url(#ar)"/>
<rect x="350.6" y="1041" width="84.80000000000001" height="15" rx="3" fill="#ffffff" opacity="0.92"/>
<text x="393" y="1052" font-size="11" fill="#334155" text-anchor="middle">ไม่ผ่าน / no</text>
<path d="M560.0,1120 L560.0,1165" fill="none" stroke="#64748B" stroke-width="1.6" marker-end="url(#ar)"/>
<rect x="566.0" y="1131" width="72.0" height="15" rx="3" fill="#ffffff" opacity="0.92"/>
<text x="602" y="1142" font-size="11" fill="#334155" text-anchor="middle">ผ่าน / yes</text>
<path d="M690,1201.0 L880,1201.0" fill="none" stroke="#64748B" stroke-width="1.6" marker-end="url(#ar)"/>
<rect x="715.6" y="1182" width="148.8" height="15" rx="3" fill="#ffffff" opacity="0.92"/>
<text x="790" y="1193" font-size="11" fill="#334155" text-anchor="middle">สรุปรายเดือน · monthly</text>
<path d="M700,911.0 L1190,911 L1190,491 L1150,491.0" fill="none" stroke="#64748B" stroke-width="1.6" stroke-dasharray="6,4" marker-end="url(#ar)"/>
<rect x="882.4" y="892" width="155.20000000000002" height="15" rx="3" fill="#ffffff" opacity="0.92"/>
<text x="960" y="903" font-size="11" fill="#334155" text-anchor="middle">แจ้งเสร็จ · notify done</text>
<ellipse cx="560.0" cy="72.0" rx="130.0" ry="32.0" fill="#DBEAFE" stroke="#1E3A8A" stroke-width="1.6"/>
<text x="560.0" y="69.0" font-size="12.5" font-weight="bold" fill="#10243f" text-anchor="middle" opacity="1">IT Admin Login</text>
<text x="560.0" y="84.0" font-size="11" font-weight="normal" fill="#10243f" text-anchor="middle" opacity="0.9">เข้าสู่ระบบ (session cookie)</text>
<rect x="420" y="150" width="280" height="60" rx="9" fill="#EFF6FF" stroke="#1E3A8A" stroke-width="1.6"/>
<text x="560.0" y="177.0" font-size="12.5" font-weight="bold" fill="#10243f" text-anchor="middle" opacity="1">Dashboard</text>
<text x="560.0" y="192.0" font-size="11" font-weight="normal" fill="#10243f" text-anchor="middle" opacity="0.9">ภาพรวม devices + tickets</text>
<rect x="880" y="150" width="270" height="60" rx="9" fill="#CCFBF1" stroke="#0D9488" stroke-width="1.6"/>
<text x="1015.0" y="177.0" font-size="12.5" font-weight="bold" fill="#05403a" text-anchor="middle" opacity="1">Warranty Audit (read-only)</text>
<text x="1015.0" y="192.0" font-size="11" font-weight="normal" fill="#05403a" text-anchor="middle" opacity="0.9">warrantyAlerts · เตือน 30 / 7 วัน</text>
<polygon points="560.0,275 670,335.0 560.0,395 450,335.0" fill="#FEF9C3" stroke="#CA8A04" stroke-width="1.6"/>
<text x="560.0" y="332.0" font-size="12.5" font-weight="bold" fill="#6b4a00" text-anchor="middle" opacity="1">อุปกรณ์มีใน Inventory?</text>
<text x="560.0" y="347.0" font-size="11" font-weight="normal" fill="#6b4a00" text-anchor="middle" opacity="0.9">Device registered?</text>
<rect x="70" y="300" width="250" height="66" rx="9" fill="#CCFBF1" stroke="#0D9488" stroke-width="1.6"/>
<text x="195.0" y="330.0" font-size="12.5" font-weight="bold" fill="#05403a" text-anchor="middle" opacity="1">Add New Device</text>
<text x="195.0" y="345.0" font-size="11" font-weight="normal" fill="#05403a" text-anchor="middle" opacity="0.9">AddDeviceForm → POST /api/devices</text>
<rect x="420" y="455" width="280" height="72" rx="9" fill="#DBEAFE" stroke="#1E3A8A" stroke-width="1.6"/>
<text x="560.0" y="488.0" font-size="12.5" font-weight="bold" fill="#10243f" text-anchor="middle" opacity="1">Create Repair Request</text>
<text x="560.0" y="503.0" font-size="11" font-weight="normal" fill="#10243f" text-anchor="middle" opacity="0.9">status = Pending</text>
<rect x="880" y="456" width="270" height="70" rx="9" fill="#FEF3C7" stroke="#CA8A04" stroke-width="1.6"/>
<text x="1015.0" y="488.0" font-size="12.5" font-weight="bold" fill="#6b4a00" text-anchor="middle" opacity="1">Email Notification</text>
<text x="1015.0" y="503.0" font-size="11" font-weight="normal" fill="#6b4a00" text-anchor="middle" opacity="0.9">แจ้งพนักงาน · ส่งผ่าน after()</text>
<rect x="420" y="590" width="280" height="62" rx="9" fill="#EFF6FF" stroke="#1E3A8A" stroke-width="1.6"/>
<text x="560.0" y="618.0" font-size="12.5" font-weight="bold" fill="#10243f" text-anchor="middle" opacity="1">In Progress</text>
<text x="560.0" y="633.0" font-size="11" font-weight="normal" fill="#10243f" text-anchor="middle" opacity="0.9">รับงาน · ดำเนินการซ่อม</text>
<rect x="70" y="592" width="250" height="64" rx="9" fill="#FEE2E2" stroke="#DC2626" stroke-width="1.6"/>
<text x="195.0" y="621.0" font-size="12.5" font-weight="bold" fill="#7a1414" text-anchor="middle" opacity="1">Cancel / Delete</text>
<text x="195.0" y="636.0" font-size="11" font-weight="normal" fill="#7a1414" text-anchor="middle" opacity="0.9">DELETE ticket · เขียน repair event</text>
<polygon points="560.0,700 665,760.0 560.0,820 455,760.0" fill="#FEF9C3" stroke="#CA8A04" stroke-width="1.6"/>
<text x="560.0" y="757.0" font-size="12.5" font-weight="bold" fill="#6b4a00" text-anchor="middle" opacity="1">ต้องรออะไหล่?</text>
<text x="560.0" y="772.0" font-size="11" font-weight="normal" fill="#6b4a00" text-anchor="middle" opacity="0.9">Need parts?</text>
<rect x="880" y="730" width="270" height="64" rx="9" fill="#FFF7ED" stroke="#D97706" stroke-width="1.6"/>
<text x="1015.0" y="759.0" font-size="12.5" font-weight="bold" fill="#7a3d05" text-anchor="middle" opacity="1">Waiting for Parts</text>
<text x="1015.0" y="774.0" font-size="11" font-weight="normal" fill="#7a3d05" text-anchor="middle" opacity="0.9">รออะไหล่</text>
<rect x="420" y="875" width="280" height="72" rx="9" fill="#DCFCE7" stroke="#16A34A" stroke-width="1.6"/>
<text x="560.0" y="908.0" font-size="12.5" font-weight="bold" fill="#0a5226" text-anchor="middle" opacity="1">Completed</text>
<text x="560.0" y="923.0" font-size="11" font-weight="normal" fill="#0a5226" text-anchor="middle" opacity="0.9">set completedAt · แจ้งผู้ใช้</text>
<polygon points="560.0,1000 665,1060.0 560.0,1120 455,1060.0" fill="#FEF9C3" stroke="#CA8A04" stroke-width="1.6"/>
<text x="560.0" y="1057.0" font-size="12.5" font-weight="bold" fill="#6b4a00" text-anchor="middle" opacity="1">ตรวจรับผ่าน?</text>
<text x="560.0" y="1072.0" font-size="11" font-weight="normal" fill="#6b4a00" text-anchor="middle" opacity="0.9">Verified OK?</text>
<ellipse cx="560.0" cy="1201.0" rx="130.0" ry="36.0" fill="#DCFCE7" stroke="#16A34A" stroke-width="1.6"/>
<text x="560.0" y="1198.0" font-size="12.5" font-weight="bold" fill="#0a5226" text-anchor="middle" opacity="1">Closed</text>
<text x="560.0" y="1213.0" font-size="11" font-weight="normal" fill="#0a5226" text-anchor="middle" opacity="0.9">ปิดงานซ่อม</text>
<rect x="880" y="1166" width="270" height="70" rx="9" fill="#E0E7FF" stroke="#3730A3" stroke-width="1.6"/>
<text x="1015.0" y="1198.0" font-size="12.5" font-weight="bold" fill="#1e1b4b" text-anchor="middle" opacity="1">Monthly Report</text>
<text x="1015.0" y="1213.0" font-size="11" font-weight="normal" fill="#1e1b4b" text-anchor="middle" opacity="0.9">ReportsView → /api/reports/export</text>
</svg>
